<svg xmlns="http://www.w3.org/2000/svg" xmlns:xlink="http://www.w3.org/1999/xlink" width="80" zoomAndPan="magnify" viewBox="0 0 60 60" height="80" preserveAspectRatio="xMidYMid meet" version="1.0"><defs><clipPath id="a794507b8e"><path d="M 22 2.636719 L 56 2.636719 L 56 57.386719 L 22 57.386719 Z M 22 2.636719 " clip-rule="nonzero"/></clipPath></defs><g clip-path="url(#a794507b8e)"><path fill="#1d5df3" d="M 51.632812 2.847656 L 26.292969 2.902344 C 24.332031 2.90625 22.757812 4.726562 22.761719 6.992188 L 22.761719 22.226562 C 23.980469 20.347656 26.128906 19.140625 28.539062 19.226562 C 30.746094 19.308594 32.648438 20.453125 33.78125 22.152344 L 33.78125 13.898438 L 51.648438 13.859375 C 53.609375 13.855469 55.183594 12.03125 55.179688 9.769531 L 55.175781 6.925781 C 55.171875 4.664062 53.59375 2.84375 51.632812 2.847656 Z M 33.785156 38.007812 C 32.644531 40.175781 30.335938 41.605469 27.714844 41.511719 C 25.6875 41.4375 23.914062 40.460938 22.761719 38.984375 L 22.757812 50.066406 C 22.757812 50.167969 22.761719 50.261719 22.769531 50.355469 L 22.761719 53.023438 C 22.761719 53.296875 22.785156 53.5625 22.832031 53.820312 C 22.832031 53.820312 22.835938 53.824219 22.835938 53.824219 C 22.847656 53.886719 22.859375 53.949219 22.871094 54.011719 C 22.871094 54.015625 22.871094 54.019531 22.875 54.023438 C 23.261719 55.796875 24.640625 57.097656 26.296875 57.105469 L 51.6875 57.171875 C 53.648438 57.175781 55.234375 55.355469 55.238281 53.085938 L 55.246094 50.234375 C 55.253906 47.964844 53.675781 46.136719 51.714844 46.128906 L 33.789062 46.082031 Z M 33.785156 38.007812 " fill-opacity="1" fill-rule="nonzero"/></g><path fill="#f44336" d="M 13.273438 22.039062 C 15.667969 22.984375 20.453125 24.875 25.242188 26.769531 C 25.875 25.769531 26.507812 24.773438 27.117188 23.90625 C 27.730469 23.039062 28.316406 22.300781 28.894531 21.90625 C 29.472656 21.507812 30.046875 21.453125 32.882812 23.6875 C 35.714844 25.921875 40.816406 30.453125 45.917969 34.984375 C 47.777344 36.789062 49.636719 38.597656 49.734375 39.453125 C 49.832031 40.308594 48.175781 40.214844 44.753906 39.105469 C 41.332031 37.992188 36.140625 35.863281 30.957031 33.730469 C 30.527344 34.328125 30.09375 34.925781 29.464844 35.726562 C 28.835938 36.53125 28.003906 37.539062 27.308594 38.078125 C 26.613281 38.621094 26.050781 38.695312 24.9375 38.128906 C 23.824219 37.5625 22.160156 36.359375 19.835938 34.324219 C 17.507812 32.285156 14.523438 29.421875 12.347656 27.257812 C 10.167969 25.09375 8.789062 23.625 7.945312 22.503906 C 7.097656 21.386719 6.777344 20.601562 7.023438 20.289062 C 7.265625 19.976562 8.074219 20.125 8.8125 20.339844 C 9.546875 20.550781 10.214844 20.824219 10.546875 20.957031 C 10.878906 21.09375 10.878906 21.09375 13.273438 22.039062 Z M 13.273438 22.039062 " fill-opacity="1" fill-rule="nonzero"/></svg>