<svg xmlns="http://www.w3.org/2000/svg" xmlns:xlink="http://www.w3.org/1999/xlink" width="80" zoomAndPan="magnify" viewBox="0 0 60 60" height="80" preserveAspectRatio="xMidYMid meet" version="1.0"><defs><clipPath id="27a828f317"><path d="M 22 2.636719 L 56 2.636719 L 56 57.386719 L 22 57.386719 Z M 22 2.636719 " clip-rule="nonzero"/></clipPath></defs><g clip-path="url(#27a828f317)"><path fill="#bfc1fb" d="M 51.613281 2.847656 L 26.28125 2.902344 C 24.324219 2.90625 22.75 4.726562 22.753906 6.988281 L 22.753906 22.21875 C 23.96875 20.339844 26.117188 19.132812 28.527344 19.21875 C 30.734375 19.300781 32.636719 20.445312 33.769531 22.144531 L 33.765625 13.894531 L 51.628906 13.855469 C 53.585938 13.851562 55.160156 12.027344 55.15625 9.765625 L 55.152344 6.921875 C 55.148438 4.660156 53.570312 2.84375 51.613281 2.847656 Z M 33.773438 37.992188 C 32.628906 40.15625 30.324219 41.589844 27.703125 41.496094 C 25.675781 41.421875 23.90625 40.445312 22.753906 38.96875 L 22.75 50.046875 C 22.75 50.144531 22.753906 50.242188 22.761719 50.335938 L 22.753906 53 C 22.753906 53.273438 22.777344 53.539062 22.824219 53.796875 C 22.824219 53.800781 22.828125 53.800781 22.828125 53.804688 C 22.839844 53.867188 22.847656 53.929688 22.863281 53.988281 C 22.863281 53.996094 22.863281 54 22.863281 54.003906 C 23.253906 55.773438 24.632812 57.078125 26.289062 57.082031 L 51.664062 57.148438 C 53.628906 57.152344 55.210938 55.332031 55.214844 53.066406 L 55.226562 50.214844 C 55.230469 47.945312 53.65625 46.117188 51.695312 46.109375 L 33.777344 46.0625 Z M 33.773438 37.992188 " fill-opacity="1" fill-rule="nonzero"/></g><path fill="#f44336" d="M 13.269531 22.03125 C 15.664062 22.976562 20.445312 24.867188 25.230469 26.757812 C 25.867188 25.761719 26.5 24.765625 27.109375 23.898438 C 27.71875 23.03125 28.304688 22.292969 28.882812 21.898438 C 29.460938 21.5 30.035156 21.445312 32.867188 23.679688 C 35.703125 25.914062 40.800781 30.441406 45.898438 34.96875 C 47.757812 36.773438 49.613281 38.582031 49.714844 39.4375 C 49.8125 40.292969 48.15625 40.199219 44.734375 39.089844 C 41.316406 37.976562 36.128906 35.847656 30.941406 33.71875 C 30.511719 34.316406 30.082031 34.910156 29.453125 35.710938 C 28.824219 36.515625 27.992188 37.523438 27.296875 38.066406 C 26.601562 38.605469 26.042969 38.679688 24.929688 38.113281 C 23.8125 37.546875 22.152344 36.34375 19.828125 34.308594 C 17.503906 32.273438 14.519531 29.410156 12.34375 27.246094 C 10.164062 25.085938 8.789062 23.617188 7.941406 22.496094 C 7.097656 21.378906 6.777344 20.59375 7.019531 20.28125 C 7.265625 19.96875 8.070312 20.121094 8.808594 20.332031 C 9.546875 20.542969 10.210938 20.816406 10.542969 20.949219 C 10.875 21.085938 10.875 21.085938 13.269531 22.03125 Z M 13.269531 22.03125 " fill-opacity="1" fill-rule="nonzero"/></svg>